<svg xmlns="http://www.w3.org/2000/svg" viewBox="0 0 165.5 26.98"><defs><style>.cls-1{fill:#f9b906;}.cls-2{fill:#fff;}</style></defs><title>logo_1</title><g id="Capa_2" data-name="Capa 2"><g id="Capa_1-2" data-name="Capa 1"><path class="cls-1" d="M115.77,20.79a1.12,1.12,0,1,1-2.24,0V14.58H106v6.21a1.12,1.12,0,1,1-2.24,0V6.14a1.12,1.12,0,1,1,2.24,0v6.21h7.53V6.14a1.12,1.12,0,1,1,2.24,0Z"/><path class="cls-1" d="M128.94,16a5.65,5.65,0,0,1-1.73,4.18A5.91,5.91,0,0,1,117.11,16a5.91,5.91,0,0,1,10.1-4.18,5.8,5.8,0,0,1,1.29,1.91A6.08,6.08,0,0,1,128.94,16ZM123,12.29a3.6,3.6,0,0,0-1.46.3,3.71,3.71,0,0,0-2,2,3.7,3.7,0,0,0,0,2.87,3.77,3.77,0,0,0,.79,1.18,3.73,3.73,0,0,0,1.17.8,3.71,3.71,0,0,0,2.9,0,3.76,3.76,0,0,0,1.18-.8,3.82,3.82,0,0,0,.79-1.18,3.67,3.67,0,0,0,0-2.86,3.82,3.82,0,0,0-.79-1.18,3.76,3.76,0,0,0-1.18-.8A3.57,3.57,0,0,0,123,12.29Z"/><path class="cls-1" d="M139.61,20.61A5.92,5.92,0,0,1,130,16a5.91,5.91,0,1,1,11.83,0v5.87a4.39,4.39,0,0,1-.23,1.44,4.67,4.67,0,0,1-.64,1.24,5.43,5.43,0,0,1-1,1,6.11,6.11,0,0,1-1.21.77,6.76,6.76,0,0,1-1.36.48A6.07,6.07,0,0,1,136,27a6.42,6.42,0,0,1-1.66-.22,6.29,6.29,0,0,1-1.54-.64,6.21,6.21,0,0,1-1.34-1,6.37,6.37,0,0,1-1-1.39,1,1,0,0,1-.17-.59,1.06,1.06,0,0,1,.32-.79,1.08,1.08,0,0,1,.79-.31.87.87,0,0,1,.52.15,3,3,0,0,1,.57.65,5.5,5.5,0,0,0,.63.77,4.12,4.12,0,0,0,5.8,0,2.75,2.75,0,0,0,.73-1.72Zm-3.71-8.32a3.6,3.6,0,0,0-1.46.3,3.71,3.71,0,0,0-2,2,3.7,3.7,0,0,0,0,2.87,3.77,3.77,0,0,0,.79,1.18,3.73,3.73,0,0,0,1.17.8,3.71,3.71,0,0,0,2.9,0,3.76,3.76,0,0,0,1.18-.8,3.82,3.82,0,0,0,.79-1.18,3.67,3.67,0,0,0,0-2.86,3.82,3.82,0,0,0-.79-1.18,3.76,3.76,0,0,0-1.18-.8A3.57,3.57,0,0,0,135.91,12.29Z"/><path class="cls-1" d="M152.29,20.82V20.6a6,6,0,0,1-1.72,1,5.76,5.76,0,0,1-2,.34A5.91,5.91,0,0,1,142.67,16a5.91,5.91,0,1,1,11.83,0v4.82a1.1,1.1,0,0,1-1.1,1.1,1.07,1.07,0,0,1-.79-.32A1.06,1.06,0,0,1,152.29,20.82Zm-3.71-8.52a3.6,3.6,0,0,0-1.46.3,3.71,3.71,0,0,0-2,2,3.7,3.7,0,0,0,0,2.87,3.77,3.77,0,0,0,.79,1.18,3.73,3.73,0,0,0,1.17.8,3.71,3.71,0,0,0,2.9,0,3.76,3.76,0,0,0,1.18-.8,3.82,3.82,0,0,0,.79-1.18,3.67,3.67,0,0,0,0-2.86,3.82,3.82,0,0,0-.79-1.18,3.76,3.76,0,0,0-1.18-.8A3.57,3.57,0,0,0,148.58,12.29Z"/><path class="cls-1" d="M158.77,11.18v.21a6,6,0,0,1,1.72-1,5.77,5.77,0,0,1,2-.34,8.52,8.52,0,0,1,1,.06,4.37,4.37,0,0,1,1,.23,2.09,2.09,0,0,1,.74.45,1,1,0,0,1,.3.74,1,1,0,0,1-.09.43,1.22,1.22,0,0,1-.24.35,1,1,0,0,1-.35.24,1.1,1.1,0,0,1-.43.08,1.18,1.18,0,0,1-.46-.12,3.89,3.89,0,0,0-1.45-.26,3.62,3.62,0,0,0-1.45.29,3.7,3.7,0,0,0-2,2,3.63,3.63,0,0,0-.29,1.45v4.82a1.1,1.1,0,0,1-1.1,1.1,1.07,1.07,0,0,1-.79-.32,1.06,1.06,0,0,1-.32-.78V11.18a1.06,1.06,0,0,1,.32-.78,1.07,1.07,0,0,1,.79-.32,1.1,1.1,0,0,1,1.1,1.1Z"/><path class="cls-2" d="M61.32,18.11a1,1,0,0,1,.43.09,1.23,1.23,0,0,1,.35.24,1.1,1.1,0,0,1,.33.79,1.13,1.13,0,0,1-.35.8,8.29,8.29,0,0,1-5.31,1.88,8.14,8.14,0,0,1-6-2.47,8.14,8.14,0,0,1-2.47-6,8.13,8.13,0,0,1,2.47-6,8.15,8.15,0,0,1,6-2.48,8.35,8.35,0,0,1,5.42,2,1,1,0,0,1,.3.77,1.13,1.13,0,0,1-.08.44,1.1,1.1,0,0,1-.24.35,1.08,1.08,0,0,1-.36.24,1.12,1.12,0,0,1-1.21-.23,6.07,6.07,0,0,0-1.77-1,6.18,6.18,0,0,0-2.05-.34,6.2,6.2,0,0,0-6.21,6.21,6.21,6.21,0,0,0,10.1,4.85A1.18,1.18,0,0,1,61.32,18.11Z"/><path class="cls-2" d="M75.38,16a5.65,5.65,0,0,1-1.73,4.18A5.91,5.91,0,0,1,63.56,16a5.91,5.91,0,0,1,10.1-4.18,5.8,5.8,0,0,1,1.29,1.91A6.08,6.08,0,0,1,75.38,16Zm-5.91-3.71a3.6,3.6,0,0,0-1.46.3,3.71,3.71,0,0,0-2,2,3.7,3.7,0,0,0,0,2.87,3.71,3.71,0,0,0,2,2,3.71,3.71,0,0,0,2.9,0,3.75,3.75,0,0,0,1.18-.8,3.81,3.81,0,0,0,.79-1.18,3.67,3.67,0,0,0,0-2.86,3.81,3.81,0,0,0-.79-1.18,3.76,3.76,0,0,0-1.18-.8A3.57,3.57,0,0,0,69.47,12.29Z"/><path class="cls-2" d="M79.27,11.17a5.48,5.48,0,0,1,5.41-.65,5.77,5.77,0,0,1,1.76,1.18,5.56,5.56,0,0,1,1.2,1.75,5.28,5.28,0,0,1,.44,2.15V20.8a1.07,1.07,0,0,1-.32.79,1.06,1.06,0,0,1-.78.32,1.1,1.1,0,0,1-1.11-1.11V15.6a3.15,3.15,0,0,0-.26-1.28,3.37,3.37,0,0,0-1.76-1.76,3.15,3.15,0,0,0-1.28-.26,3.19,3.19,0,0,0-1.28.26,3.36,3.36,0,0,0-1.76,1.77,3.2,3.2,0,0,0-.26,1.28V20.8a1.07,1.07,0,0,1-.32.79,1.06,1.06,0,0,1-.78.32,1.1,1.1,0,0,1-1.11-1.11V11.19a1.08,1.08,0,0,1,.32-.78,1.06,1.06,0,0,1,.79-.33,1.11,1.11,0,0,1,1.1,1.09Z"/><path class="cls-2" d="M90.42,10.09h.5v-4a1.06,1.06,0,0,1,.32-.78A1.07,1.07,0,0,1,92,5a1.1,1.1,0,0,1,1.1,1.1v4h1.32a1,1,0,0,1,.77.32,1.07,1.07,0,0,1,.32.78,1.08,1.08,0,0,1-.32.79,1,1,0,0,1-.77.32H93.12V17.6a1.86,1.86,0,0,0,2.11,2.1A1,1,0,0,1,96,20a1.07,1.07,0,0,1,.32.78,1.08,1.08,0,0,1-.32.79,1,1,0,0,1-.77.32q-4.32,0-4.32-4.31V12.29h-.5a1,1,0,0,1-.77-.32,1.07,1.07,0,0,1-.32-.79,1.06,1.06,0,0,1,.32-.78A1,1,0,0,1,90.42,10.09Z"/><path class="cls-2" d="M98.43,20.8V11.19a1.07,1.07,0,0,1,.32-.79,1.1,1.1,0,0,1,1.55,0,1.11,1.11,0,0,1,.33.79V20.8a1.11,1.11,0,0,1-.33.79,1.1,1.1,0,0,1-1.55,0A1.07,1.07,0,0,1,98.43,20.8Z"/><path class="cls-2" d="M99.53,5.18a3.12,3.12,0,0,1-2.1,2.1s1.82.54,2.1,2.1c.28-1.56,2.1-2.1,2.1-2.1A3.12,3.12,0,0,1,99.53,5.18Z"/><path class="cls-1" d="M19.74,19.2a8.6,8.6,0,1,1-.91-12.46l3.4-3.4a13.39,13.39,0,1,0,.9,19.25Z"/><rect class="cls-2" x="22.57" y="12.34" width="9.58" height="4.56" transform="translate(18.36 -15.06) rotate(45)"/><polygon class="cls-2" points="43.73 18.19 25.56 0.03 21.04 4.55 17.65 7.94 12.48 13.11 15.71 16.34 19.77 12.27 25.56 6.48 40.5 21.42 43.73 18.19"/></g></g></svg>